<?xml version="1.0" encoding="UTF-8" standalone="no"?>
<svg
   width="16"
   height="16"
   version="1.1"
   id="svg1"
   xmlns="http://www.w3.org/2000/svg"
   xmlns:svg="http://www.w3.org/2000/svg">
  <defs
     id="defs1">
    <style
       id="current-color-scheme"
       type="text/css">.ColorScheme-Text { color:#ebdbb2; } .ColorScheme-Highlight { color:#458588; }</style>
  </defs>
  <path
     class="ColorScheme-Text"
     d="m 6.195081,1.4371359 c -1.2289518,0 -1.8901147,1.2838653 -1.8901147,2.4930875 0,0.9573009 0.7169986,2.7879287 1.8401266,2.7879287 0.7272791,0 1.5930157,-0.5419106 1.5930157,-3.1182256 0,-1.1327124 -0.736805,-2.1627906 -1.5430276,-2.1627906 z m 4.117884,0 c -1.3374159,0 -2.0466805,1.4116922 -2.0466805,2.4315066 0,0.8109067 0.3031345,3.1266229 1.6505495,3.1266229 1.328927,0 2.04668,-1.6393545 2.04668,-3.1788731 0,-1.5544476 -0.959205,-2.3792564 -1.650549,-2.3792564 z M 3.1741045,5.8840128 C 2.2931829,5.8840128 1.4,7.2397223 1.4,8.567441 c 0,0.947037 0.6769139,2.31861 1.7335481,2.31861 1.0657831,0 1.699594,-1.4592789 1.699594,-2.8663059 0,-1.0795293 -0.8231052,-2.1366655 -1.6590376,-2.1366655 z m 10.1296555,0 c -0.688138,0.015293 -1.393063,0.6601269 -2.00518,1.8679497 -0.42707,0.8401107 -0.512615,1.6421531 -0.247772,2.2579605 0.185994,0.430878 0.531382,0.733746 0.974296,0.842444 0.100165,0.02499 0.203346,0.03473 0.305304,0.03473 0.826596,0 1.638288,-0.820706 2.112702,-2.1450648 C 14.687581,8.0561636 14.642214,7.1857292 14.335872,6.5792519 14.154217,6.2198517 13.901448,5.9942422 13.601425,5.9191323 13.504089,5.8947241 13.404302,5.8830516 13.304327,5.8843951 Z M 7.7909264,8.3854977 c -0.8450814,0 -1.3779729,0.6611535 -1.9391596,1.3631739 -0.1848615,0.2323275 -0.3723639,0.4713724 -0.5859921,0.7037024 -0.2567312,0.281028 -0.5228941,0.496096 -0.7510471,0.685875 -0.5413801,0.450476 -1.0063634,0.84347 -1.0063634,1.737323 0,0.807925 0.5818422,1.624428 1.6920488,1.624428 0.6126838,0 1.0563513,-0.141168 1.4854941,-0.277861 0.3807583,-0.121763 0.7396348,-0.23466 1.196884,-0.23466 0.4980885,0 0.947887,0.08591 1.3864609,0.173736 0.4278231,0.08583 0.873566,0.182595 1.344961,0.182595 1.243101,0 1.873139,-0.543126 1.873139,-1.598303 0,-0.806894 -0.657014,-1.111252 -1.238384,-1.380902 C 10.865285,11.185648 10.470192,10.999975 10.225627,10.68731 10.028693,10.431004 9.844115,10.164342 9.672552,9.8882545 9.1845561,9.1168157 8.7306071,8.3860575 7.7909264,8.3860575 Z"
     fill="currentColor"
     id="path1"
     style="fill:#71a1c8;fill-opacity:1;stroke-width:0.938093" />
</svg>
