<?xml version="1.0" encoding="utf-8"?>
<svg width="16" height="16" version="1.1" id="svg1" xmlns="http://www.w3.org/2000/svg">
  <defs id="defs1">
    <style id="current-color-scheme" type="text/css">.ColorScheme-Text { color:#ebdbb2; } .ColorScheme-Highlight { color:#458588; }</style>
  </defs>
  <path class="ColorScheme-Text" d="m 2.0773361,1.4994164 c -0.3217282,0 -0.5801516,0.2582253 -0.5801516,0.5799504 v 2.0913758 c 0,0.3216168 0.2583148,0.5799505 0.5801516,0.5799505 h 2.0921017 c 0.3217284,0 0.5801516,-0.2582253 0.5801516,-0.5799505 V 2.0793668 c 0,-0.3216168 -0.2583148,-0.5799504 -0.5801516,-0.5799504 z m 9.7559149,0 c -0.32173,0 -0.580152,0.2582253 -0.580152,0.5799504 v 2.0913758 c 0,0.3216168 0.258314,0.5799505 0.580152,0.5799505 h 2.092102 c 0.321727,0 0.580149,-0.2582253 0.580149,-0.5799505 V 2.0793668 c 0,-0.3216168 -0.258313,-0.5799504 -0.580149,-0.5799504 z m -4.8779577,0.00425 C 6.633565,1.5036533 6.3751416,1.7618786 6.3751416,2.0836038 v 2.0913758 c 0,0.3216168 0.258315,0.5799505 0.5801517,0.5799505 H 9.047395 c 0.3217283,0 0.5801512,-0.2582253 0.5801512,-0.5799505 V 2.0836038 c 0,-0.3216168 -0.2583144,-0.5799505 -0.5801512,-0.5799505 z M 2.0773361,6.3755886 C 1.7556079,6.3755837 1.4971845,6.6338091 1.4971845,6.9555343 v 2.0913758 c 0,0.3216168 0.2583148,0.5799504 0.5801516,0.5799504 h 2.0921017 c 0.3217284,0 0.5801516,-0.2582253 0.5801516,-0.5799504 V 6.9555343 c 0,-0.3216168 -0.2583148,-0.5799506 -0.5801516,-0.5799506 z m 4.8779572,0 C 6.633565,6.3755837 6.3751416,6.6338091 6.3751416,6.9555343 v 2.0913758 c 0,0.3216168 0.258315,0.5799504 0.5801517,0.5799504 H 9.047395 c 0.3217283,0 0.5801512,-0.2582253 0.5801512,-0.5799504 V 6.9555343 c 0,-0.3216168 -0.2583144,-0.5799506 -0.5801512,-0.5799506 z m 4.8779577,0 c -0.32173,-4.9e-6 -0.580152,0.2582205 -0.580152,0.5799457 v 2.0913758 c 0,0.3216168 0.258314,0.5799504 0.580152,0.5799504 h 2.092102 c 0.321727,0 0.580149,-0.2582253 0.580149,-0.5799504 V 6.9555343 c 0,-0.3216168 -0.258313,-0.5799506 -0.580149,-0.5799506 z M 2.0773361,11.251853 c -0.3217282,-4e-6 -0.5801516,0.258222 -0.5801516,0.579946 v 2.091376 c 0,0.321616 0.2583148,0.579951 0.5801516,0.579951 h 2.0921017 c 0.3217284,0 0.5801516,-0.258225 0.5801516,-0.579951 v -2.091376 c 0,-0.321617 -0.2583148,-0.57995 -0.5801516,-0.57995 z m 4.8779572,0 c -0.3217283,0 -0.5801517,0.258226 -0.5801517,0.579951 v 2.091375 c 0,0.321618 0.258315,0.579952 0.5801517,0.579952 H 9.047395 c 0.3217283,0 0.5801512,-0.258225 0.5801512,-0.579952 v -2.091375 c 0,-0.321617 -0.2583144,-0.579951 -0.5801512,-0.579951 z m 4.8779577,0 c -0.32173,0 -0.580152,0.258226 -0.580152,0.579951 v 2.091375 c 0,0.321618 0.258314,0.579952 0.580152,0.579952 h 2.092102 c 0.321727,0 0.580149,-0.258225 0.580149,-0.579952 v -2.091375 c 0,-0.321617 -0.258313,-0.579951 -0.580149,-0.579951 z" id="path1" style="stroke-width: 1.08381; fill-opacity: 1; fill: rgb(255, 255, 255);"/>
</svg>